{"title":"Red.Faction.Origins.2011.480p.HDTVRip.x264.Feel-Free","uid":6449940,"size":1248215166,"categoryP":"video","categoryS":"movies","magnet":"?xt=urn:btih:4d3a34f4ea6dbfdfabe5a70548bbd41718f14b88&amp;dn=Red.Faction.Origins.2011.480p.HDTVRip.x264.Feel-Free&amp;tr=udp%3A%2F%2Ftracker.openbittorrent.com%3A80&amp;tr=udp%3A%2F%2Fopen.demonii.com%3A1337&amp;tr=udp%3A%2F%2Ftracker.coppersurfer.tk%3A6969&amp;tr=udp%3A%2F%2Fexodus.desync.com%3A6969","seeders":1,"leechers":0,"uploader":".BONE.","files":7,"time":1307388068,"description":"\nGenre:Sci-Fi\nLanguage:English\n &lt;a href=&quot;\nhttp://www.imdb.com/title/tt1693872/&quot; rel=&quot;nofollow&quot; target=&quot;_NEW&quot;&gt;\nhttp://www.imdb.com/title/tt1693872/&lt;/a&gt;\n\nSource:720p.HDTV.x264-aAF.Thanks!\n\nFormat : MPEG-4\nFormat profile : Base Media\nCodec ID : isom\nFile size : 1.16 GiB\nDuration : 1h 28mn\nOverall bit rate : 1 884 Kbps\nMovie name : red.mp4\n\nVideo\nID : 1\nFormat : AVC\nFormat/Info : Advanced Video Codec\nFormat profile : &lt;a class=&quot;__cf_email__&quot; href=&quot;/cdn-cgi/l/email-protection&quot; data-cfemail=&quot;4901202e2109057a6779&quot;&gt;[email&amp;#160;protected]&lt;/a&gt;&lt;script cf-hash='f9e31' type=&quot;text/javascript&quot;&gt;\n/* &lt;![CDATA[ */!function(){try{var t=&quot;currentScript&quot;in document?document.currentScript:function(){for(var t=document.getElementsByTagName(&quot;script&quot;),e=t.length;e--;)if(t[e].getAttribute(&quot;cf-hash&quot;))return t[e]}();if(t&amp;&amp;t.previousSibling){var e,r,n,i,c=t.previousSibling,a=c.getAttribute(&quot;data-cfemail&quot;);if(a){for(e=&quot;&quot;,r=parseInt(a.substr(0,2),16),n=2;a.length-n;n+=2)i=parseInt(a.substr(n,2),16)^r,e+=String.fromCharCode(i);e=document.createTextNode(e),c.parentNode.replaceChild(e,c)}}}catch(u){}}();/* ]]&gt; */&lt;/script&gt;\nFormat settings, CABAC : Yes\nFormat settings, ReFrames : 4 frames\nCodec ID : avc1\nCodec ID/Info : Advanced Video Coding\nDuration : 1h 28mn\nBit rate mode : Variable\nBit rate : 1 500 Kbps\nWidth : 720 pixels\nHeight : 400 pixels\nDisplay aspect ratio : 16:9\nFrame rate mode : Constant\nFrame rate : 23.976 fps\nColor space : YUV\nChroma subsampling : 4:2:0\nBit depth : 8 bits\nScan type : Progressive\nBits/(Pixel*Frame) : 0.217\nStream size : 943 MiB (79%)\n\nAudio\nID : 2\nFormat : AAC\nFormat/Info : Advanced Audio Codec\nFormat version : Version 4\nFormat profile : LC\nCodec ID : 40\nDuration : 1h 28mn\nBit rate mode : Variable\nBit rate : 384 Kbps\nChannel(s) : 6 channels\nChannel positions : Front: L C R, Side: L R, LFE\nSampling rate : 48.0 KHz\nStream size : 242 MiB (20%)\n\n\nPlot:\nFollows rebel hero Alec Mason and the Mason family.\n &lt;a href=&quot;\nhttp://www.pix2links.com/images/62037955657279714991.png&quot; rel=&quot;nofollow&quot; target=&quot;_NEW&quot;&gt;\nhttp://www.pix2links.com/images/62037955657279714991.png&lt;/a&gt;\n &lt;a href=&quot;\nhttp://www.pix2links.com/images/63888574135343785410.png&quot; rel=&quot;nofollow&quot; target=&quot;_NEW&quot;&gt;\nhttp://www.pix2links.com/images/63888574135343785410.png&lt;/a&gt;\n &lt;a href=&quot;\nhttp://www.pix2links.com/images/48116313545739772862.png&quot; rel=&quot;nofollow&quot; target=&quot;_NEW&quot;&gt;\nhttp://www.pix2links.com/images/48116313545739772862.png&lt;/a&gt;","torrent":{"xt":"urn:btih:4d3a34f4ea6dbfdfabe5a70548bbd41718f14b88","amp;dn":"Red.Faction.Origins.2011.480p.HDTVRip.x264.Feel-Free","amp;tr":["udp%3A%2F%2Ftracker.openbittorrent.com%3A80","udp%3A%2F%2Fopen.demonii.com%3A1337","udp%3A%2F%2Ftracker.coppersurfer.tk%3A6969","udp%3A%2F%2Fexodus.desync.com%3A6969"],"infoHash":"4d3a34f4ea6dbfdfabe5a70548bbd41718f14b88","infoHashBuffer":{"type":"Buffer","data":[77,58,52,244,234,109,191,223,171,229,167,5,72,187,212,23,24,241,75,136]},"announce":[],"urlList":[]}}